<?xml version="1.0" encoding="UTF-8"?>
<svg version="1.1" xmlns="http://www.w3.org/2000/svg" width="256" height="256">
<path d="M0 0 C3.19086401 2.65498596 6.07922508 5.57247624 8.98632812 8.53222656 C9.84581055 9.39112488 10.70529297 10.25002319 11.59082031 11.13494873 C13.92822601 13.47465163 16.25644097 15.82282524 18.58091164 18.17533588 C21.01868011 20.638234 23.46790147 23.08969044 25.91589355 25.54241943 C30.54194995 30.18087179 35.15772132 34.82941873 39.76982069 39.48174453 C45.02433879 44.78108591 50.29031928 50.06897434 55.55725956 55.35596514 C66.38424661 66.22467988 77.19685975 77.10757886 88 88 C91.16065312 86.60169445 93.28294015 84.96140063 95.71226501 82.51478577 C96.43415512 81.79275467 97.15604523 81.07072357 97.89981079 80.32681274 C98.68173798 79.53455292 99.46366516 78.74229309 100.26928711 77.92602539 C101.10064682 77.09174515 101.93200653 76.2574649 102.78855896 75.39790344 C105.06479799 73.11206468 107.33659555 70.82191407 109.60681987 68.53010488 C111.98658964 66.13035786 114.37284775 63.73708344 116.75868225 61.34336853 C123.33960133 54.73837487 129.91047272 48.12341462 136.48125458 41.50833893 C142.50184538 35.44736166 148.52454742 29.38852309 154.55540472 23.33775896 C156.92896883 20.95587576 159.30032553 18.571876 161.6667614 16.18290901 C164.30716735 13.51859795 166.95357938 10.86038995 169.60131836 8.20336914 C170.38122131 7.41313354 171.16112427 6.62289795 171.96466064 5.80871582 C173.05172554 4.72143944 173.05172554 4.72143944 174.16075134 3.61219788 C174.78514068 2.98336732 175.40953001 2.35453676 176.05284023 1.70665073 C182.51376756 -3.95623659 188.41904492 -4.37194128 196.7421875 -4.26953125 C204.46263143 -3.63078949 208.65775967 0.174077 213.5546875 5.90234375 C216.67994061 10.43818408 217.31470734 14.34395583 217.375 19.8125 C217.40335937 20.97394531 217.43171875 22.13539062 217.4609375 23.33203125 C216.32086287 32.40432006 210.71710431 37.84815875 204.46777344 43.98632812 C203.60887512 44.84581055 202.74997681 45.70529297 201.86505127 46.59082031 C199.52534837 48.92822601 197.17717476 51.25644097 194.82466412 53.58091164 C192.361766 56.01868011 189.91030956 58.46790147 187.45758057 60.91589355 C182.81912821 65.54194995 178.17058127 70.15772132 173.51825547 74.76982069 C168.21891409 80.02433879 162.93102566 85.29031928 157.64403486 90.55725956 C146.77532012 101.38424661 135.89242114 112.19685975 125 123 C126.4033499 126.17895057 128.05852763 128.29940479 130.5231781 130.73677063 C131.25362335 131.46418457 131.9840686 132.19159851 132.73664856 132.9410553 C133.53825912 133.72919113 134.33986969 134.51732697 135.16577148 135.3293457 C136.4318222 136.58619675 136.4318222 136.58619675 137.72344971 137.86843872 C140.03630967 140.16325108 142.35341777 142.45368047 144.67182422 144.74288583 C147.10018412 147.14380968 149.52127835 149.55203082 151.94264221 151.96000671 C160.18877489 160.15788897 168.44655701 168.34397658 176.71313477 176.52124023 C181.28056014 181.03947191 185.8406929 185.56493908 190.39320809 190.09819478 C192.80050162 192.49457685 195.21154123 194.88690917 197.63189507 197.27010536 C200.33206496 199.93181444 203.01966238 202.6056439 205.70483398 205.2824707 C206.50442032 206.06453384 207.30400665 206.84659698 208.12782288 207.65235901 C214.35512819 213.90181581 217.42725719 218.83164623 217.4375 227.9375 C217.24568227 235.18053756 216.13686007 239.70596949 211.12890625 244.96484375 C205.45051653 250.21386563 201.02899273 252.28854473 193.1875 252.375 C192.02605469 252.40335937 190.86460937 252.43171875 189.66796875 252.4609375 C180.59567994 251.32086287 175.15184125 245.71710431 169.01367188 239.46777344 C168.15418945 238.60887512 167.29470703 237.74997681 166.40917969 236.86505127 C164.07177399 234.52534837 161.74355903 232.17717476 159.41908836 229.82466412 C156.98131989 227.361766 154.53209853 224.91030956 152.08410645 222.45758057 C147.45805005 217.81912821 142.84227868 213.17058127 138.23017931 208.51825547 C132.97566121 203.21891409 127.70968072 197.93102566 122.44274044 192.64403486 C111.61575339 181.77532012 100.80314025 170.89242114 90 160 C86.82104943 161.4033499 84.70059521 163.05852763 82.26322937 165.5231781 C81.53581543 166.25362335 80.80840149 166.9840686 80.0589447 167.73664856 C79.27080887 168.53825912 78.48267303 169.33986969 77.6706543 170.16577148 C76.41380325 171.4318222 76.41380325 171.4318222 75.13156128 172.72344971 C72.83674892 175.03630967 70.54631953 177.35341777 68.25711417 179.67182422 C65.85619032 182.10018412 63.44796918 184.52127835 61.03999329 186.94264221 C52.84211103 195.18877489 44.65602342 203.44655701 36.47875977 211.71313477 C31.96052809 216.28056014 27.43506092 220.8406929 22.90180522 225.39320809 C20.50542315 227.80050162 18.11309083 230.21154123 15.72989464 232.63189507 C13.06818556 235.33206496 10.3943561 238.01966238 7.7175293 240.70483398 C6.93546616 241.50442032 6.15340302 242.30400665 5.34764099 243.12782288 C-0.90181581 249.35512819 -5.83164623 252.42725719 -14.9375 252.4375 C-22.18053756 252.24568227 -26.70596949 251.13686007 -31.96484375 246.12890625 C-38.16444159 239.42218384 -39.42606405 234.23380241 -39.2421875 225.15234375 C-38.37715212 213.89293162 -28.23375413 206.08359804 -20.67797852 198.56445312 C-19.87716354 197.76349213 -19.07634857 196.96253113 -18.25126648 196.13729858 C-15.62951228 193.5162356 -13.00424438 190.89872278 -10.37890625 188.28125 C-8.55023187 186.45444261 -6.72177956 184.62741288 -4.89353943 182.8001709 C-0.58903814 178.49908488 3.71768034 174.20023089 8.02550608 169.90247488 C12.93446225 165.00474193 17.8405391 160.10412901 22.74639022 155.20328617 C32.82775267 145.13234308 42.9126803 135.06497597 53 125 C51.5966501 121.82104943 49.94147237 119.70059521 47.4768219 117.26322937 C46.74637665 116.53581543 46.0159314 115.80840149 45.26335144 115.0589447 C44.46174088 114.27080887 43.66013031 113.48267303 42.83422852 112.6706543 C41.9901947 111.8327536 41.14616089 110.99485291 40.27655029 110.13156128 C37.96369033 107.83674892 35.64658223 105.54631953 33.32817578 103.25711417 C30.89981588 100.85619032 28.47872165 98.44796918 26.05735779 96.03999329 C17.81122511 87.84211103 9.55344299 79.65602342 1.28686523 71.47875977 C-3.28056014 66.96052809 -7.8406929 62.43506092 -12.39320809 57.90180522 C-14.80050162 55.50542315 -17.21154123 53.11309083 -19.63189507 50.72989464 C-22.33206496 48.06818556 -25.01966238 45.3943561 -27.70483398 42.7175293 C-28.50442032 41.93546616 -29.30400665 41.15340302 -30.12782288 40.34764099 C-35.2343631 35.22293601 -38.49352554 31.12627723 -39.3984375 23.75390625 C-39.33447849 15.04482067 -38.80460586 8.76787197 -32.8125 2.1875 C-23.59619937 -6.20489018 -10.42936431 -6.56808152 0 0 Z " fill="#FFFFFF" transform="translate(39,4)"/>
</svg>
