<?xml version="1.0" encoding="UTF-8"?>
<svg version="1.1" xmlns="http://www.w3.org/2000/svg" width="256" height="256">
<path d="M0 0 C0.79986328 -0.00012085 1.59972656 -0.0002417 2.42382812 -0.00036621 C14.23265418 0.02508385 25.13126808 0.71635416 36.4375 4.375 C37.48164063 4.66375 38.52578125 4.9525 39.6015625 5.25 C54.95638006 9.78757141 69.93360432 18.40517083 82.2109375 28.54296875 C84.40510894 30.39471132 84.40510894 30.39471132 86.7265625 31.98828125 C87.29117188 32.44589844 87.85578125 32.90351562 88.4375 33.375 C88.4375 34.035 88.4375 34.695 88.4375 35.375 C89.076875 35.643125 89.71625 35.91125 90.375 36.1875 C92.4375 37.375 92.4375 37.375 93.4375 40.375 C94.4275 40.705 95.4175 41.035 96.4375 41.375 C98.08708182 43.21514723 99.58121742 45.03135169 101.0625 47 C101.50053955 47.57903076 101.9385791 48.15806152 102.38989258 48.75463867 C113.69235136 63.98396432 122.16169777 80.83301402 126.4375 99.375 C126.61410156 100.11661377 126.79070312 100.85822754 126.97265625 101.62231445 C128.82597565 110.34201673 128.83302813 119.06752391 128.8125 127.9375 C128.81262085 128.73736328 128.8127417 129.53722656 128.81286621 130.36132812 C128.78741615 142.17015418 128.09614584 153.06876808 124.4375 164.375 C124.14875 165.41914063 123.86 166.46328125 123.5625 167.5390625 C119.02492859 182.89388006 110.40732917 197.87110432 100.26953125 210.1484375 C98.41778868 212.34260894 98.41778868 212.34260894 96.82421875 214.6640625 C96.13779297 215.51097656 96.13779297 215.51097656 95.4375 216.375 C94.7775 216.375 94.1175 216.375 93.4375 216.375 C93.169375 217.014375 92.90125 217.65375 92.625 218.3125 C91.4375 220.375 91.4375 220.375 88.4375 221.375 C88.1075 222.365 87.7775 223.355 87.4375 224.375 C85.59735277 226.02458182 83.78114831 227.51871742 81.8125 229 C81.23346924 229.43803955 80.65443848 229.8760791 80.05786133 230.32739258 C64.82853568 241.62985136 47.97948598 250.09919777 29.4375 254.375 C28.32507935 254.63990234 28.32507935 254.63990234 27.19018555 254.91015625 C18.47048327 256.76347565 9.74497609 256.77052813 0.875 256.75 C0.07513672 256.75012085 -0.72472656 256.7502417 -1.54882812 256.75036621 C-13.35765418 256.72491615 -24.25626808 256.03364584 -35.5625 252.375 C-36.60664062 252.08625 -37.65078125 251.7975 -38.7265625 251.5 C-54.08138006 246.96242859 -69.05860432 238.34482917 -81.3359375 228.20703125 C-83.53010894 226.35528868 -83.53010894 226.35528868 -85.8515625 224.76171875 C-86.69847656 224.07529297 -86.69847656 224.07529297 -87.5625 223.375 C-87.5625 222.715 -87.5625 222.055 -87.5625 221.375 C-88.201875 221.106875 -88.84125 220.83875 -89.5 220.5625 C-91.5625 219.375 -91.5625 219.375 -92.5625 216.375 C-93.5525 216.045 -94.5425 215.715 -95.5625 215.375 C-97.21208182 213.53485277 -98.70621742 211.71864831 -100.1875 209.75 C-100.62553955 209.17096924 -101.0635791 208.59193848 -101.51489258 207.99536133 C-112.81735136 192.76603568 -121.28669777 175.91698598 -125.5625 157.375 C-125.82740234 156.26257935 -125.82740234 156.26257935 -126.09765625 155.12768555 C-127.95097565 146.40798327 -127.95802813 137.68247609 -127.9375 128.8125 C-127.93762085 128.01263672 -127.9377417 127.21277344 -127.93786621 126.38867188 C-127.91241615 114.57984582 -127.22114584 103.68123192 -123.5625 92.375 C-123.27375 91.33085938 -122.985 90.28671875 -122.6875 89.2109375 C-118.14992859 73.85611994 -109.53232917 58.87889568 -99.39453125 46.6015625 C-97.54278868 44.40739106 -97.54278868 44.40739106 -95.94921875 42.0859375 C-95.49160156 41.52132812 -95.03398438 40.95671875 -94.5625 40.375 C-93.9025 40.375 -93.2425 40.375 -92.5625 40.375 C-92.294375 39.735625 -92.02625 39.09625 -91.75 38.4375 C-90.5625 36.375 -90.5625 36.375 -87.5625 35.375 C-87.2325 34.385 -86.9025 33.395 -86.5625 32.375 C-84.72235277 30.72541818 -82.90614831 29.23128258 -80.9375 27.75 C-80.35846924 27.31196045 -79.77943848 26.8739209 -79.18286133 26.42260742 C-63.95353568 15.12014864 -47.10448598 6.65080223 -28.5625 2.375 C-27.82088623 2.19839844 -27.07927246 2.02179687 -26.31518555 1.83984375 C-17.59548327 -0.01347565 -8.86997609 -0.02052813 0 0 Z " fill="#FA5C5C" transform="translate(127.5625,-0.375)"/>
<path d="M0 0 C2 0 2 0 4.5 2.4375 C5.7375 3.7059375 5.7375 3.7059375 7 5 C10.19041174 6.59520587 13.52792375 6.3872204 17 6 C20.30101131 4.60075055 20.30101131 4.60075055 23 3 C23.66 3 24.32 3 25 3 C25.33 2.01 25.66 1.02 26 0 C26.53367188 0.433125 27.06734375 0.86625 27.6171875 1.3125 C32.65527952 5.07799438 36.35420195 6.86309305 42.703125 6.46875 C46.11121207 5.77322203 48.35120278 4.19656355 51 2 C51.99 1.34 52.98 0.68 54 0 C54.763125 0.804375 55.52625 1.60875 56.3125 2.4375 C60.24174647 6.18399082 63.51927783 6.33528322 68.70703125 6.29296875 C72.20475473 5.84607052 74.35865969 4.24513927 77 2 C77.33 1.34 77.66 0.68 78 0 C78.66 0 79.32 0 80 0 C80.680625 0.78375 81.36125 1.5675 82.0625 2.375 C85.02206885 5.0197211 85.98105888 5.4470105 89.68359375 6.1640625 C90.4923999 6.32600098 91.30120605 6.48793945 92.13452148 6.65478516 C92.75012939 6.76870605 93.3657373 6.88262695 94 7 C94.05100566 14.48898385 94.08586123 21.97792234 94.10986328 29.46704102 C94.11987697 32.01100336 94.13349185 34.55495432 94.15087891 37.09887695 C94.17533158 40.77037376 94.18652979 44.44171743 94.1953125 48.11328125 C94.20563507 49.23769119 94.21595764 50.36210114 94.22659302 51.52058411 C94.22922031 70.30916698 94.22922031 70.30916698 89 76 C75.78123068 80.58938574 60.57465756 79.39281715 46.81616211 79.28125 C42.94179574 79.25003461 39.06783934 79.24025619 35.19335938 79.234375 C-2.07827924 79.1192948 -2.07827924 79.1192948 -10 75 C-15.08154448 67.37768328 -14.27642565 56.94871878 -14.1953125 48.11328125 C-14.1924826 46.93025925 -14.18965271 45.74723724 -14.18673706 44.52836609 C-14.175638 40.78963645 -14.15055275 37.05115592 -14.125 33.3125 C-14.11495692 30.76107119 -14.1058334 28.20963859 -14.09765625 25.65820312 C-14.07573241 19.43871863 -14.04235867 13.21937712 -14 7 C-13.38439209 6.8860791 -12.76878418 6.7721582 -12.13452148 6.65478516 C-10.92131226 6.41187744 -10.92131226 6.41187744 -9.68359375 6.1640625 C-8.88236084 6.0088916 -8.08112793 5.8537207 -7.25561523 5.69384766 C-3.95353199 4.67809697 -2.22183654 2.55847844 0 0 Z " fill="#FEFCFC" transform="translate(88,106)"/>
<path d="M0 0 C0.92247025 -0.01328842 1.84494049 -0.02657684 2.79536438 -0.04026794 C5.84714339 -0.07897946 8.89844562 -0.09456276 11.95043945 -0.10668945 C14.07550666 -0.1214111 16.20057278 -0.13629067 18.32563782 -0.15132141 C22.78352902 -0.17832295 27.24125333 -0.19186298 31.69921875 -0.19824219 C37.39816212 -0.20909616 43.09532816 -0.27075102 48.79374981 -0.34495831 C53.1854287 -0.3934527 57.57668322 -0.40577321 61.96860695 -0.40830421 C64.06852719 -0.4155165 66.1684467 -0.4359195 68.26810265 -0.47000694 C86.74832677 -0.74703449 86.74832677 -0.74703449 92.58422852 4.359375 C94.43634033 6.49311829 94.43634033 6.49311829 95.8762207 8.4675293 C96.67157227 9.33120117 97.46692383 10.19487305 98.28637695 11.0847168 C101.94098092 16.07847825 103.86183055 19.86307209 103.3684082 26.1394043 C102.35199684 30.94719139 100.38448381 34.20384939 96.5637207 37.4050293 C93.04091072 38.79776813 90.6405692 38.92981771 86.8762207 38.4675293 C82.95082118 36.31240799 79.91522041 33.74029821 76.8762207 30.4675293 C76.5049707 31.2306543 76.1337207 31.9937793 75.7512207 32.7800293 C73.42840666 36.10939609 71.67412109 37.07983492 67.8762207 38.4675293 C63.63001823 38.99830461 61.46729047 38.76306418 57.6262207 36.8425293 C54.64573451 34.26847304 53.35615136 32.08513756 51.8762207 28.4675293 C51.4637207 29.3956543 51.0512207 30.3237793 50.6262207 31.2800293 C48.31517584 35.48943245 46.37920338 36.96653507 41.8762207 38.4675293 C37.68450389 38.86297428 35.39546768 38.7371383 31.6262207 36.7800293 C28.92014498 34.50446562 27.44622753 32.60754294 25.8762207 29.4675293 C25.40442383 30.19069336 25.40442383 30.19069336 24.9230957 30.9284668 C20.43504008 37.55240431 20.43504008 37.55240431 16.8762207 38.4675293 C11.56099543 38.88937257 8.12684071 39.00971264 3.8762207 35.4675293 C1.5637207 32.2800293 1.5637207 32.2800293 -0.1237793 29.4675293 C-0.4950293 30.2100293 -0.8662793 30.9525293 -1.2487793 31.7175293 C-3.53509715 35.07079549 -5.52359347 36.59820204 -9.1237793 38.4675293 C-13.38945943 39.07691217 -15.51296625 38.77293582 -19.3737793 36.8425293 C-23.10647176 33.61884035 -24.78808264 31.01219282 -25.44018555 26.0690918 C-25.71064923 20.25848487 -24.98821843 17.00824528 -21.1237793 12.4675293 C-20.4947168 11.72245117 -19.8656543 10.97737305 -19.2175293 10.2097168 C-17.23214307 7.9057798 -15.24733065 5.64499895 -13.1237793 3.4675293 C-12.61070724 2.93987473 -12.09763519 2.41222015 -11.5690155 1.86857605 C-7.82623776 -0.27592295 -4.24461874 0.00870525 0 0 Z " fill="#FEFDFD" transform="translate(89.123779296875,70.532470703125)"/>
<path d="M0 0 C1.01964844 -0.00773437 2.03929688 -0.01546875 3.08984375 -0.0234375 C6.0625 0.375 6.0625 0.375 8.40063477 1.875 C11.42128458 3.57718036 13.18686386 3.76115844 16.625 3.7734375 C18.19121094 3.77923828 18.19121094 3.77923828 19.7890625 3.78515625 C20.86929688 3.77355469 21.94953125 3.76195313 23.0625 3.75 C24.68285156 3.76740234 24.68285156 3.76740234 26.3359375 3.78515625 C27.38007813 3.78128906 28.42421875 3.77742188 29.5 3.7734375 C30.44746094 3.77005371 31.39492187 3.76666992 32.37109375 3.76318359 C35.53567937 3.30675298 37.40101933 2.09825482 40.0625 0.375 C45.17998967 -0.45184331 49.69270886 -0.23379606 54.4375 1.875 C61.09210099 8.21271523 63.44483236 15.87220421 65.8125 24.5625 C66.26689453 26.16254883 66.26689453 26.16254883 66.73046875 27.79492188 C71.84705303 45.97585136 71.84705303 45.97585136 68.75 51.875 C64.311751 54.35216223 60.00912428 54.15496565 55.0625 53.375 C50.39287241 51.62485765 47.18458944 49.05169686 44.5625 44.8125 C43.0625 41.375 43.0625 41.375 43.0625 37.375 C42.05340576 37.61839111 42.05340576 37.61839111 41.02392578 37.86669922 C37.53118329 38.4661955 34.22415258 38.50472614 30.6796875 38.5078125 C29.63556198 38.50924759 29.63556198 38.50924759 28.57034302 38.51071167 C27.10630197 38.51138931 25.64225785 38.50956419 24.17822266 38.50537109 C21.93775718 38.50000062 19.69749068 38.50533847 17.45703125 38.51171875 C16.03124956 38.51105821 14.60546799 38.50977755 13.1796875 38.5078125 C11.88659668 38.50668457 10.59350586 38.50555664 9.26123047 38.50439453 C6.0625 38.375 6.0625 38.375 3.0625 37.375 C2.98 38.24125 2.8975 39.1075 2.8125 40 C1.79570206 44.57559075 0.19683287 47.77794723 -3.62890625 50.640625 C-8.85523315 53.63916407 -13.99959542 54.36115376 -19.9375 53.375 C-22.5625 52 -22.5625 52 -23.9375 49.375 C-25.03203174 41.14865467 -22.68757652 33.60706932 -20.3125 25.8125 C-19.98121094 24.64525391 -19.64992188 23.47800781 -19.30859375 22.27539062 C-16.2983657 12.19396649 -12.20313839 -0.09233144 0 0 Z " fill="#FA5E5E" transform="translate(104.9375,119.625)"/>
<path d="M0 0 C3.60286506 1.52524036 5.94299983 3.67485437 8.6875 6.4375 C9.47511719 7.21996094 10.26273438 8.00242188 11.07421875 8.80859375 C13 11 13 11 14 14 C11.69 14 9.38 14 7 14 C7 15.98 7 17.96 7 20 C3.04 20 -0.92 20 -5 20 C-5 18.02 -5 16.04 -5 14 C-7.31 14 -9.62 14 -12 14 C-9.87753203 10.13284962 -7.47253855 7.25594323 -4.3125 4.1875 C-3.50425781 3.39730469 -2.69601563 2.60710937 -1.86328125 1.79296875 C-1.24839844 1.20128906 -0.63351563 0.60960937 0 0 Z " fill="#FEF9F9" transform="translate(127,132)"/>
</svg>
