<?xml version="1.0" encoding="UTF-8"?>
<svg version="1.1" xmlns="http://www.w3.org/2000/svg" width="512" height="512">
<path d="M0 0 C1.86791151 1.45024528 3.75820388 2.86867461 5.65307617 4.28344727 C5.85670776 3.07398437 5.85670776 3.07398437 6.06445312 1.84008789 C6.68998106 -1.84690031 7.32767031 -5.5316868 7.96557617 -9.21655273 C8.17891602 -10.48499023 8.39225586 -11.75342773 8.61206055 -13.06030273 C10.47458808 -23.73508742 12.37666975 -32.21605941 20.65307617 -39.71655273 C26.35714734 -43.22675038 32.12657416 -43.63994519 38.65307617 -42.71655273 C45.73340108 -40.61076645 49.7728839 -37.14678202 53.59448242 -30.90014648 C57.11825536 -23.63155211 55.68625823 -15.69666586 54.24780273 -8.04077148 C54.09817078 -7.21364655 53.94853882 -6.38652161 53.79437256 -5.53433228 C53.30159269 -2.82281638 52.79823933 -0.11340356 52.29370117 2.59594727 C51.94428496 4.49343901 51.59514803 6.39098219 51.24627686 8.28857422 C50.51478236 12.2568809 49.77762109 16.22408601 49.03686523 20.19067383 C48.09122783 25.25868025 47.16328299 30.32974635 46.24002457 35.40187073 C45.52436105 39.31893822 44.79750405 43.23386762 44.06749725 47.14828491 C43.72080447 49.01656287 43.37795744 50.88555893 43.03913116 52.75527954 C42.5630092 55.3750583 42.07138129 57.99148396 41.57592773 60.60766602 C41.44069702 61.37049896 41.30546631 62.13333191 41.1661377 62.91928101 C39.67220181 70.62807176 36.44833901 78.48460268 30.14916992 83.47485352 C18.87409941 90.4639361 1.17452378 85.41732189 -11.05395508 83.36157227 C-12.91416382 83.05655452 -14.77449256 82.75226783 -16.63493347 82.44866943 C-20.50632516 81.81411646 -24.37618058 81.17107744 -28.24511719 80.52172852 C-33.17914858 79.69428859 -38.11637091 78.88806319 -43.05492115 78.0880928 C-46.88694904 77.46501441 -50.71708874 76.83090077 -54.54675865 76.19350433 C-56.36609908 75.89199699 -58.18599063 75.59379417 -60.00644875 75.29911041 C-85.16935101 71.20872936 -85.16935101 71.20872936 -91.15942383 63.19360352 C-95.29122636 56.54738168 -96.09370607 50.95463083 -94.34692383 43.28344727 C-92.20814566 36.06026829 -87.76012006 32.86146601 -81.34692383 29.28344727 C-72.14408745 24.68202908 -56.20430817 29.65770649 -46.53442383 31.28344727 C-44.76309342 31.57345173 -42.99160961 31.86252091 -41.2199707 32.15063477 C-36.92711322 32.85081884 -32.63652069 33.56356848 -28.34692383 34.28344727 C-35.16279464 28.98920876 -41.88180874 24.01533267 -49.59692383 20.09594727 C-50.40919434 19.67869385 -51.22146484 19.26144043 -52.05834961 18.83154297 C-90.23991805 -0.40095834 -134.17479457 -2.46039085 -174.63598633 10.62719727 C-194.10897375 17.33287581 -211.43374143 28.21307957 -226.23754883 42.44750977 C-228.34692383 44.28344727 -228.34692383 44.28344727 -230.34692383 44.28344727 C-230.61633789 44.88543945 -230.88575195 45.48743164 -231.16333008 46.10766602 C-232.35732518 48.3025679 -233.43262902 49.45242278 -235.28442383 51.09594727 C-260.89662804 76.12242539 -273.62297207 114.78543621 -274.53442383 149.84594727 C-273.94809316 186.60888027 -260.53609618 222.90488362 -234.83764648 249.46630859 C-232.63143615 251.75984977 -231.37039551 253.21303222 -230.34692383 256.28344727 C-229.02589751 256.97417998 -227.69009223 257.6368246 -226.34692383 258.28344727 C-224.87780954 259.58186447 -223.44374996 260.92036845 -222.03442383 262.28344727 C-193.810016 288.06615412 -154.27706664 299.77109015 -116.53295898 298.38842773 C-83.47932501 296.80108547 -52.16869911 286.25099847 -26.34692383 265.28344727 C-25.79294922 264.84162109 -25.23897461 264.39979492 -24.66821289 263.94458008 C-1.47659808 245.35765845 14.23725496 220.80537104 23.69580078 192.67871094 C25.93630886 187.07258374 29.57069902 183.55445629 34.90307617 180.84594727 C40.83727465 178.55974015 46.27337809 178.12567897 52.33276367 180.20141602 C58.50012082 183.0288839 62.78803784 186.20720818 65.68432617 192.53735352 C70.29410191 205.23410652 63.18840787 218.77912412 57.79760742 230.34204102 C44.5481927 257.85876839 25.82502108 282.48304567 1.65307617 301.28344727 C1.10409668 301.71415527 0.55511719 302.14486328 -0.01049805 302.58862305 C-41.92529643 335.25179786 -95.49673512 348.02252448 -147.92895508 342.03344727 C-178.65811864 338.05034797 -209.01156261 327.29253206 -234.34692383 309.28344727 C-235.38977539 308.54352539 -236.43262695 307.80360352 -237.50708008 307.04125977 C-243.31863096 302.79463978 -248.76360382 298.27520778 -254.05004883 293.39282227 C-256.10627734 291.50444914 -258.20978791 289.70364144 -260.34692383 287.90844727 C-295.19079251 257.23749699 -315.32043789 208.44011596 -318.95043945 162.91772461 C-322.17137883 112.04939438 -304.18107244 61.50882258 -270.6159668 23.3137207 C-264.25432998 16.2375834 -257.82355243 9.20070454 -250.34692383 3.28344727 C-249.39688477 2.5190332 -248.4468457 1.75461914 -247.46801758 0.96704102 C-218.16318827 -22.29954463 -182.79267852 -38.04820272 -145.34692383 -41.71655273 C-144.3130957 -41.82612305 -143.27926758 -41.93569336 -142.21411133 -42.04858398 C-91.0368285 -46.7639356 -40.34413479 -31.56296387 0 0 Z " fill="#FEFEFE" transform="translate(382.346923828125,105.716552734375)"/>
</svg>
